<svg width="122.88" height="111.48" viewBox="0 0 122.88 111.48" fill="none" xmlns="http://www.w3.org/2000/svg">
  <!-- Basket -->
  <path d="M30 70L40 50H82.88L92.88 70V100H30V70Z" fill="#D97706" stroke="#B45309" stroke-width="3"/>
  <path d="M35 70L45 55H77.88L87.88 70" stroke="#92400E" stroke-width="2" stroke-linecap="round"/>

  <!-- Basket weave pattern -->
  <path d="M40 60H82.88" stroke="#92400E" stroke-width="1.5" stroke-linecap="round"/>
  <path d="M40 65H82.88" stroke="#92400E" stroke-width="1.5" stroke-linecap="round"/>
  <path d="M40 75H82.88" stroke="#92400E" stroke-width="1.5" stroke-linecap="round"/>
  <path d="M40 85H82.88" stroke="#92400E" stroke-width="1.5" stroke-linecap="round"/>
  <path d="M40 95H82.88" stroke="#92400E" stroke-width="1.5" stroke-linecap="round"/>
  <path d="M45 55V100" stroke="#92400E" stroke-width="1.5" stroke-linecap="round"/>
  <path d="M55 55V100" stroke="#92400E" stroke-width="1.5" stroke-linecap="round"/>
  <path d="M65 55V100" stroke="#92400E" stroke-width="1.5" stroke-linecap="round"/>
  <path d="M75 55V100" stroke="#92400E" stroke-width="1.5" stroke-linecap="round"/>

  <!-- Fruits -->
  <!-- Apple -->
  <circle cx="50" cy="40" r="12" fill="#DC2626" stroke="#991B1B" stroke-width="2"/>
  <path d="M50 28L52 25L48 25L50 28Z" fill="#16A34A"/>
  <path d="M50 30V25" stroke="#059669" stroke-width="2" stroke-linecap="round"/>

  <!-- Orange -->
  <circle cx="75" cy="35" r="10" fill="#EA580C" stroke="#C2410C" stroke-width="2"/>
  <circle cx="72" cy="33" r="1" fill="#FBBF24"/>
  <circle cx="78" cy="37" r="1" fill="#FBBF24"/>

  <!-- Grapes -->
  <circle cx="90" cy="45" r="5" fill="#7C3AED" stroke="#6D28D9" stroke-width="1.5"/>
  <circle cx="85" cy="40" r="5" fill="#7C3AED" stroke="#6D28D9" stroke-width="1.5"/>
  <circle cx="95" cy="40" r="5" fill="#7C3AED" stroke="#6D28D9" stroke-width="1.5"/>
  <circle cx="88" cy="35" r="5" fill="#7C3AED" stroke="#6D28D9" stroke-width="1.5"/>
  <circle cx="92" cy="35" r="4" fill="#7C3AED" stroke="#6D28D9" stroke-width="1.5"/>
  <path d="M90 30V25" stroke="#16A34A" stroke-width="2" stroke-linecap="round"/>

  <!-- Carrot -->
  <path d="M35 45L40 55L38 57L33 47Z" fill="#EA580C" stroke="#C2410C" stroke-width="1.5"/>
  <path d="M33 47L25 40L27 38L35 45Z" fill="#EA580C" stroke="#C2410C" stroke-width="1.5"/>
  <path d="M40 55L48 60L46 62L38 57Z" fill="#EA580C" stroke="#C2410C" stroke-width="1.5"/>
  <path d="M35 42L30 35" stroke="#16A34A" stroke-width="2" stroke-linecap="round"/>
  <path d="M37 40L32 33" stroke="#16A34A" stroke-width="2" stroke-linecap="round"/>

  <!-- Corn -->
  <rect x="100" y="45" width="8" height="20" fill="#FBBF24" stroke="#D97706" stroke-width="1.5"/>
  <circle cx="104" cy="50" r="2" fill="#92400E"/>
  <circle cx="104" cy="55" r="2" fill="#92400E"/>
  <circle cx="104" cy="60" r="2" fill="#92400E"/>
  <path d="M104 40L104 30" stroke="#16A34A" stroke-width="2" stroke-linecap="round"/>
  <path d="M102 38L100 33" stroke="#16A34A" stroke-width="1.5" stroke-linecap="round"/>
  <path d="M106 38L108 33" stroke="#16A34A" stroke-width="1.5" stroke-linecap="round"/>

  <!-- Sunflower -->
  <circle cx="110" cy="25" r="8" fill="#FBBF24" stroke="#D97706" stroke-width="1.5"/>
  <circle cx="110" cy="25" r="4" fill="#92400E"/>
  <path d="M110 17L110 10" stroke="#16A34A" stroke-width="2" stroke-linecap="round"/>
  <path d="M105 20L100 15" stroke="#16A34A" stroke-width="1.5" stroke-linecap="round"/>
  <path d="M115 20L120 15" stroke="#16A34A" stroke-width="1.5" stroke-linecap="round"/>
</svg>