<svg width="122.88" height="111.48" viewBox="0 0 122.88 111.48" fill="none" xmlns="http://www.w3.org/2000/svg">
  <!-- Wheat stalks -->
  <path d="M30 90V40" stroke="#A16207" stroke-width="3" stroke-linecap="round"/>
  <path d="M40 90V35" stroke="#A16207" stroke-width="3" stroke-linecap="round"/>
  <path d="M50 90V45" stroke="#A16207" stroke-width="3" stroke-linecap="round"/>
  <path d="M60 90V30" stroke="#A16207" stroke-width="3" stroke-linecap="round"/>
  <path d="M70 90V40" stroke="#A16207" stroke-width="3" stroke-linecap="round"/>
  <path d="M80 90V35" stroke="#A16207" stroke-width="3" stroke-linecap="round"/>
  <path d="M90 90V45" stroke="#A16207" stroke-width="3" stroke-linecap="round"/>

  <!-- Wheat heads -->
  <circle cx="30" cy="25" r="8" fill="#FBBF24" stroke="#D97706" stroke-width="2"/>
  <circle cx="40" cy="20" r="7" fill="#FBBF24" stroke="#D97706" stroke-width="2"/>
  <circle cx="50" cy="30" r="6" fill="#FBBF24" stroke="#D97706" stroke-width="2"/>
  <circle cx="60" cy="15" r="9" fill="#FBBF24" stroke="#D97706" stroke-width="2"/>
  <circle cx="70" cy="25" r="7" fill="#FBBF24" stroke="#D97706" stroke-width="2"/>
  <circle cx="80" cy="20" r="6" fill="#FBBF24" stroke="#D97706" stroke-width="2"/>
  <circle cx="90" cy="30" r="8" fill="#FBBF24" stroke="#D97706" stroke-width="2"/>

  <!-- Ground -->
  <rect x="20" y="90" width="82.88" height="21.48" fill="#92400E" stroke="#78350F" stroke-width="3"/>

  <!-- Tractor -->
  <rect x="100" y="70" width="22.88" height="15" fill="#3B82F6" stroke="#1D4ED8" stroke-width="2" rx="3"/>
  <circle cx="105" cy="95" r="8" fill="#4B5563" stroke="#374151" stroke-width="2"/>
  <circle cx="117.88" cy="95" r="8" fill="#4B5563" stroke="#374151" stroke-width="2"/>
  <rect x="110" y="60" width="8" height="10" fill="#1F2937" stroke="#111827" stroke-width="2"/>

  <!-- Leaves on stalks -->
  <path d="M35 60L25 55" stroke="#16A34A" stroke-width="2" stroke-linecap="round"/>
  <path d="M35 70L25 75" stroke="#16A34A" stroke-width="2" stroke-linecap="round"/>
  <path d="M45 50L35 45" stroke="#16A34A" stroke-width="2" stroke-linecap="round"/>
  <path d="M45 75L35 80" stroke="#16A34A" stroke-width="2" stroke-linecap="round"/>
  <path d="M65 50L55 45" stroke="#16A34A" stroke-width="2" stroke-linecap="round"/>
  <path d="M65 65L55 70" stroke="#16A34A" stroke-width="2" stroke-linecap="round"/>
  <path d="M85 55L75 50" stroke="#16A34A" stroke-width="2" stroke-linecap="round"/>
  <path d="M85 70L75 75" stroke="#16A34A" stroke-width="2" stroke-linecap="round"/>
</svg>