<svg width="122.88" height="111.48" viewBox="0 0 122.88 111.48" fill="none" xmlns="http://www.w3.org/2000/svg">
  <!-- Tech circuit board design -->
  <rect x="10" y="10" width="102.88" height="91.48" rx="15" fill="#F3F4F6" stroke="#3B82F6" stroke-width="3"/>

  <!-- Circuit paths -->
  <path d="M30 30H92.88" stroke="#3B82F6" stroke-width="3" stroke-linecap="round"/>
  <path d="M30 50H92.88" stroke="#10B981" stroke-width="3" stroke-linecap="round"/>
  <path d="M30 70H92.88" stroke="#8B5CF6" stroke-width="3" stroke-linecap="round"/>

  <!-- Connection points -->
  <circle cx="30" cy="30" r="5" fill="#3B82F6"/>
  <circle cx="50" cy="30" r="3" fill="#3B82F6"/>
  <circle cx="70" cy="30" r="3" fill="#3B82F6"/>
  <circle cx="92.88" cy="30" r="5" fill="#3B82F6"/>

  <circle cx="30" cy="50" r="5" fill="#10B981"/>
  <circle cx="50" cy="50" r="3" fill="#10B981"/>
  <circle cx="70" cy="50" r="3" fill="#10B981"/>
  <circle cx="92.88" cy="50" r="5" fill="#10B981"/>

  <circle cx="30" cy="70" r="5" fill="#8B5CF6"/>
  <circle cx="50" cy="70" r="3" fill="#8B5CF6"/>
  <circle cx="70" cy="70" r="3" fill="#8B5CF6"/>
  <circle cx="92.88" cy="70" r="5" fill="#8B5CF6"/>

  <!-- Vertical connections -->
  <path d="M50 30V70" stroke="#6B7280" stroke-width="1.5" stroke-linecap="round" stroke-dasharray="4 4"/>
  <path d="M70 30V70" stroke="#6B7280" stroke-width="1.5" stroke-linecap="round" stroke-dasharray="4 4"/>

  <!-- Tech chip in center -->
  <rect x="45" y="40" width="32.88" height="21.48" rx="5" fill="#1F2937" stroke="#3B82F6" stroke-width="2"/>
  <path d="M50 45H72.88" stroke="#10B981" stroke-width="1.5" stroke-linecap="round"/>
  <path d="M50 55H72.88" stroke="#10B981" stroke-width="1.5" stroke-linecap="round"/>
  <circle cx="55" cy="50" r="2" fill="#F59E0B"/>
  <circle cx="65" cy="50" r="2" fill="#F59E0B"/>
</svg>